<svg width="24" height="24" viewBox="0 0 24 24" fill="none" xmlns="http://www.w3.org/2000/svg">
<path d="M13.6362 3H6.68124C6.0275 3 5.45441 3.57238 5.45441 4.22755V19.7724C5.45441 20.4269 6.02678 21 6.68196 21H17.3181C17.9725 21 18.5456 20.4276 18.5456 19.7724V7.90876L15.6823 5.86333L13.6362 3Z" fill="#18A0FB"/>
<path d="M8.72668 16.0905H15.2719V15.2726H8.7274L8.72668 16.0905ZM8.72668 17.727H13.6354V16.9091H8.72668V17.727ZM8.72668 11.9996V12.8175H15.2719V11.9996H8.72668ZM8.72668 14.454H15.2719V13.6361H8.7274L8.72668 14.454Z" fill="#E6EAF0"/>
<path d="M13.6362 3V6.68193C13.6362 7.33639 14.2085 7.90876 14.863 7.90876H18.5449L13.6362 3Z" fill="#068BE4"/>
</svg>
