<svg width="24" height="24" viewBox="0 0 24 24" fill="none" xmlns="http://www.w3.org/2000/svg">
<path d="M13.7143 3H6.42887C5.74274 3 5.14301 3.59974 5.14301 4.28587V19.7141C5.14301 20.3995 5.74274 21 6.42887 21H17.5711C18.2566 21 18.857 20.4003 18.857 19.7141V8.14275L15.8569 6.00012L13.7143 3Z" fill="#068BE4"/>
<path d="M10.2858 16.2849H15.4285V15.4281H10.2858V16.2849ZM10.2858 10.7138V11.5705H15.4285V10.7138H10.2858ZM9.51395 11.1429C9.51395 11.4856 9.25692 11.8283 8.82854 11.8283C8.40016 11.8283 8.14313 11.5713 8.14313 11.1429C8.14313 10.7145 8.40016 10.4575 8.82854 10.4575C9.25692 10.4575 9.51395 10.7994 9.51395 11.1429ZM9.51395 13.5425C9.51395 13.8852 9.25692 14.2279 8.82854 14.2279C8.40016 14.2279 8.14313 13.9709 8.14313 13.5425C8.14313 13.1142 8.40016 12.8571 8.82854 12.8571C9.25692 12.8571 9.51395 13.1998 9.51395 13.5425ZM9.51395 15.8565C9.51395 16.1992 9.25692 16.5419 8.82854 16.5419C8.40016 16.5419 8.14313 16.2849 8.14313 15.8565C8.14313 15.4281 8.40016 15.1711 8.82854 15.1711C9.25692 15.1711 9.51395 15.5138 9.51395 15.8565ZM10.2858 14.1423H15.4285V13.2848H10.2858V14.1423Z" fill="#E6EAF0"/>
<path d="M13.7142 3V6.85689C13.7142 7.5423 14.314 8.14275 15.0001 8.14275H18.857L13.7142 3Z" fill="#0077C7"/>
</svg>
