<svg width="159" height="28" viewBox="0 0 159 28" fill="none" xmlns="http://www.w3.org/2000/svg">
<path d="M49.5642 7.17553C48.5296 9.21808 48.0123 11.7872 48.0123 14.883C48.0123 19.3191 49.0954 22.6223 51.2616 24.7925C53.4278 26.9308 56.6772 28 61.0096 28C62.7231 28 64.469 27.8723 66.2473 27.617C68.0255 27.3936 69.6097 27.0904 71 26.7074L69.7876 20.484C68.947 20.6436 68.1387 20.7872 67.3627 20.9149C66.5868 21.0425 65.8108 21.1383 65.0348 21.2021C64.2912 21.2659 63.5314 21.2979 62.7555 21.2979C61.3975 21.2979 60.2175 21.0585 59.2152 20.5798C58.2452 20.0691 57.5016 19.3351 56.9843 18.3776C56.4993 17.3883 56.2568 16.1436 56.2568 14.6436C56.2568 13.0798 56.4832 11.8032 56.9358 10.8138C57.4208 9.79255 58.1321 9.04255 59.0697 8.56382C60.0396 8.05319 61.2197 7.79787 62.61 7.79787C63.3213 7.79787 64.0487 7.82978 64.7924 7.89361C65.536 7.95744 66.2958 8.03723 67.0717 8.13297C67.8477 8.22872 68.6236 8.35638 69.3996 8.51595L70.515 2.00532C69.7391 1.78191 68.8661 1.60638 67.8962 1.47872C66.9262 1.31915 65.9078 1.20745 64.8409 1.14362C63.8062 1.04787 62.7716 1 61.737 1C58.7625 1 56.2568 1.5266 54.22 2.57979C52.1831 3.60106 50.6312 5.13298 49.5642 7.17553Z" fill="#F5F7FA"/>
<path d="M22.4434 1.38391C22.9359 1.22185 23.4609 1.1111 24.0184 1.05165L26.7599 8.54804C26.3096 8.46054 25.8594 8.39209 25.4091 8.34271C24.8257 8.24673 24.2909 8.19873 23.8047 8.19873C22.962 8.19873 22.1031 8.34271 21.2279 8.63066C20.3528 8.88662 19.4128 9.36653 18.4081 10.0704V27.5874H10.4833V1.47989H17.6788V4.50337C18.5863 3.67151 19.4128 2.99963 20.1583 2.48772C20.9038 1.97581 21.6655 1.60787 22.4434 1.38391Z" fill="#F5F7FA"/>
<path d="M48.9088 6.8128C47.8148 8.95585 47.2677 11.6514 47.2677 14.8995C47.2677 15.5017 47.2869 16.084 47.3253 16.6465L43.3857 27.5874H34.3427L24.6468 1H33.0786L39.1073 20.8206L44.4067 1.43193L52.769 1.52791L52.2644 2.92949C50.8639 3.92939 49.7454 5.22382 48.9088 6.8128Z" fill="#F5F7FA"/>
<path d="M0.975363 20.7295C0.325121 21.4036 0 22.4468 0 23.8592C0 25.2395 0.325121 26.2827 0.975363 26.9889C1.65812 27.663 2.77978 28 4.34037 28C5.93346 28 7.05513 27.663 7.70537 26.9889C8.38812 26.2827 8.7295 25.2395 8.7295 23.8592C8.7295 22.4468 8.38812 21.4036 7.70537 20.7295C7.05513 20.0233 5.93346 19.6702 4.34037 19.6702C2.77978 19.6702 1.65812 20.0233 0.975363 20.7295Z" fill="#F5F7FA"/>
<path d="M72 17.46C72 23.58 76.068 27.72 81.36 27.72C84.96 27.72 87.516 25.884 88.704 23.688V27.396H92.016V0.756001H88.704V11.196C87.336 8.928 84.492 7.344 81.396 7.344C76.068 7.344 72 11.304 72 17.46ZM88.704 17.496C88.704 22.14 85.608 24.84 82.008 24.84C78.408 24.84 75.348 22.104 75.348 17.46C75.348 12.816 78.408 10.188 82.008 10.188C85.608 10.188 88.704 12.924 88.704 17.496Z" fill="#18A0FB"/>
<path d="M100.828 16.668C100.828 12.096 103.204 10.692 106.336 10.692H107.2V7.308C104.068 7.308 101.944 8.676 100.828 10.872V7.668H97.5521V27.396H100.828V16.668Z" fill="#18A0FB"/>
<path d="M110.982 27.396H114.258V7.668H110.982V27.396ZM112.674 4.464C113.862 4.464 114.834 3.492 114.834 2.232C114.834 0.972 113.862 0 112.674 0C111.414 0 110.442 0.972 110.442 2.232C110.442 3.492 111.414 4.464 112.674 4.464Z" fill="#18A0FB"/>
<path d="M117.501 7.668L125.241 27.396H129.057L136.797 7.668H133.305L127.185 24.372L121.029 7.668H117.501Z" fill="#18A0FB"/>
<path d="M148.409 10.116C151.793 10.116 154.673 12.24 154.637 16.092H142.181C142.541 12.24 145.205 10.116 148.409 10.116ZM157.625 21.312H154.097C153.377 23.436 151.505 24.948 148.553 24.948C145.205 24.948 142.397 22.752 142.145 18.756H157.913C157.985 18.072 158.021 17.496 158.021 16.776C158.021 11.376 154.277 7.344 148.553 7.344C142.793 7.344 138.797 11.268 138.797 17.496C138.797 23.76 142.937 27.72 148.553 27.72C153.449 27.72 156.617 24.912 157.625 21.312Z" fill="#18A0FB"/>
</svg>
