<svg width="24" height="24" viewBox="0 0 24 24" fill="none" xmlns="http://www.w3.org/2000/svg">
<path d="M13.6359 3.00037H6.68334C6.00835 3.00037 5.45648 3.55584 5.45648 4.23046V19.7732C5.45648 20.4481 6.00835 21 6.68334 21H17.3157C17.9907 21 18.5426 20.4481 18.5426 19.7732V7.91067L15.6781 5.86519L13.6359 3.00037Z" fill="#0077C7"/>
<path d="M8.72919 11.7946V17.7277H15.2739V11.7946H8.72919ZM11.5904 16.9087H9.54493V15.8859H11.5904V16.9087ZM11.5904 15.2707H9.54493V14.248H11.5904V15.2707ZM11.5904 13.6363H9.54493V12.6136H11.5904V13.6363ZM14.4549 16.9087H12.4094V15.8859H14.4549V16.9087ZM14.4549 15.2707H12.4094V14.248H14.4549V15.2707ZM14.4549 13.6363H12.4094V12.6136H14.4549V13.6363Z" fill="#E6EAF0"/>
<path d="M13.6368 3.00186V6.68207C13.6368 7.36029 14.185 7.90892 14.8636 7.90892H18.5435L13.6368 3.00186Z" fill="#0061A7"/>
</svg>
