<svg width="24" height="24" viewBox="0 0 24 24" fill="none" xmlns="http://www.w3.org/2000/svg">
<path d="M13.6347 3H6.68098C6.00598 3 5.45374 3.55188 5.45374 4.22688V19.7731C5.45374 20.4481 6.00562 21 6.68062 21H17.3154C17.9904 21 18.5423 20.4481 18.5423 19.7731V7.90788L15.677 5.86164L13.6347 3Z" fill="#0061A7"/>
<path d="M14.6579 11.181H9.34211C9.00443 11.181 8.72687 11.4586 8.72687 11.7962V17.1152C8.72687 17.4529 9.00443 17.7305 9.34211 17.7305H14.6611C14.9988 17.7305 15.2763 17.4529 15.2763 17.1152V11.7962C15.2731 11.4586 14.9952 11.181 14.6579 11.181ZM14.4537 15.8848H9.54623V13.0195H14.4541V15.8848H14.4537Z" fill="#E6EAF0"/>
<path d="M13.6356 3.0015V6.6825C13.6356 7.3611 14.1839 7.90938 14.8625 7.90938H18.5435L13.6356 3.0015Z" fill="#00234C"/>
</svg>
